<svg id="Group_24925" data-name="Group 24925" xmlns="http://www.w3.org/2000/svg" width="36" height="36" viewBox="0 0 36 36">
  <path id="Path_18030" data-name="Path 18030" d="M18,0A18,18,0,1,1,0,18,18,18,0,0,1,18,0Z" fill="#252c5f"/>
  <path id="Icon_awesome-search" data-name="Icon awesome-search" d="M19.137,16.746l-3.778-3.771a.91.91,0,0,0-.644-.265H14.1a7.881,7.881,0,1,0-1.364,1.362v.617a.906.906,0,0,0,.265.643L16.776,19.1a.907.907,0,0,0,1.285,0l1.072-1.07a.911.911,0,0,0,0-1.286ZM7.882,12.71a4.842,4.842,0,1,1,4.85-4.842A4.843,4.843,0,0,1,7.882,12.71Z" transform="translate(8.5 8.132)" fill="#fff"/>
</svg>
